<svg xmlns="http://www.w3.org/2000/svg" xmlns:xlink="http://www.w3.org/1999/xlink" width="920" height="415" viewBox="0 0 920 415">
  <defs>
    <clipPath id="clip-Featured_image_920x415_Trends_in_healthcareapp_development">
      <rect width="920" height="415"/>
    </clipPath>
  </defs>
  <g id="Featured_image_920x415_Trends_in_healthcareapp_development" data-name="Featured image – 920x415_Trends in healthcareapp development" clip-path="url(#clip-Featured_image_920x415_Trends_in_healthcareapp_development)">
    <rect width="920" height="415" fill="#fff"/>
    <rect id="Rectangle_4391" data-name="Rectangle 4391" width="631.214" height="0.443" transform="translate(144.393 332.918)" fill="#1d1d1b"/>
    <g id="Group_26196" data-name="Group 26196" transform="translate(55.837 -5.657)">
      <g id="Group_26194" data-name="Group 26194" transform="translate(-36.976 1.568)">
        <g id="Group_26193" data-name="Group 26193" transform="translate(446.4 34.621)">
          <g id="Group_26131" data-name="Group 26131" transform="translate(0 0)">
            <g id="Group_25706" data-name="Group 25706" transform="translate(0 0)">
              <path id="Path_5912" data-name="Path 5912" d="M145.933,0H59.3c-4.009,0-7.26,3.64-7.26,8.129V173.18c0,4.49,3.25,8.13,7.26,8.13h86.631c4.01,0,7.26-3.64,7.26-8.13V8.129C153.193,3.64,149.943,0,145.933,0Z" transform="translate(-52.043 0)" fill="#38425b"/>
              <path id="Path_5913" data-name="Path 5913" d="M145.161,7.168H65.843c-2.664,0-4.823,2.482-4.823,5.544V173.2c0,3.062,2.159,5.544,4.823,5.544h79.318c2.663,0,4.822-2.482,4.822-5.544V12.712C149.983,9.65,147.823,7.168,145.161,7.168Z" transform="translate(-54.888 -2.3)" fill="#fff"/>
              <path id="Path_5920" data-name="Path 5920" d="M83.6,3.584H140.1a3.746,3.746,0,0,1,1.074.155,3.044,3.044,0,0,1,.911.441,2.136,2.136,0,0,1,.608.661,1.564,1.564,0,0,1,.214.779,4.652,4.652,0,0,1-2.073,3.685,8.767,8.767,0,0,1-5.035,1.58H88.015a8.837,8.837,0,0,1-5.132-1.542A4.671,4.671,0,0,1,80.758,5.62a1.807,1.807,0,0,1,.822-1.44,3.419,3.419,0,0,1,1.985-.6Z" transform="translate(-61.259 -1.15)" fill="#38425b"/>
              <path id="Path_5921" data-name="Path 5921" d="M140.915,241.913H89.731v3.651h51.184Z" transform="translate(-64.138 -77.639)" fill="#38425b"/>
            </g>
          </g>
        </g>
        <g id="Rectangle_7254" data-name="Rectangle 7254" transform="translate(486.68 64.174)" fill="none" stroke="#dadfe3" stroke-width="2">
          <rect width="43.992" height="43.991" rx="5" stroke="none"/>
          <rect x="1" y="1" width="41.992" height="41.991" rx="4" fill="none"/>
        </g>
        <rect id="Rectangle_7255" data-name="Rectangle 7255" width="17.92" height="17.919" rx="5" transform="translate(463.277 64.174)" fill="#dadfe3"/>
        <rect id="Rectangle_7256" data-name="Rectangle 7256" width="17.92" height="17.919" rx="5" transform="translate(463.277 90.246)" fill="#dadfe3"/>
        <rect id="Rectangle_7258" data-name="Rectangle 7258" width="17.92" height="17.919" rx="5" transform="translate(488.016 168.461)" fill="#d7f7ef"/>
        <rect id="Rectangle_7259" data-name="Rectangle 7259" width="17.92" height="17.919" rx="5" transform="translate(463.277 168.461)" fill="#39d8b0"/>
        <rect id="Rectangle_7260" data-name="Rectangle 7260" width="67.394" height="43.991" rx="4" transform="translate(463.278 116.318)" fill="#d7f7ef"/>
        <rect id="Rectangle_7261" data-name="Rectangle 7261" width="8.96" height="37.001" rx="2" transform="translate(504.196 67.67)" fill="#39d8b0"/>
        <rect id="Rectangle_7262" data-name="Rectangle 7262" width="8.303" height="35.508" rx="2" transform="translate(526.431 82.018) rotate(90)" fill="#39d8b0"/>
      </g>
      <rect id="Rectangle_7257" data-name="Rectangle 7257" width="17.92" height="17.919" rx="5" transform="translate(475.752 168.461)" fill="#d7f7ef"/>
    </g>
    <g id="Group_26083" data-name="Group 26083" transform="translate(524.975 73.03)">
      <path id="Path_12158" data-name="Path 12158" d="M212.466,95.671c-.267.889,4.757,18.827,4.757,18.827-.867,0-10.758,19.271,1.978,23.095.267,0,.978-.734,1.889-1.778s3.979-16.226,4.223-21.383c.356-7.18-2.223-20-1.334-21.361Z" transform="translate(-97.812 40.033)" fill="#fbd2bd"/>
      <path id="Path_12159" data-name="Path 12159" d="M202.462,97.493C190.481,96,189.57,66.752,189.57,66.752l6.668-3.156a15.8,15.8,0,0,0,2.645-5.268V46.68c5.957,1.712,13.959,1.067,15,0,0,5.246-.178,14.626.333,15.359l6.157,1.689C221.978,65.707,216.2,99.2,202.462,97.493Z" transform="translate(-125.796 -16.69)" fill="#fbd2bd"/>
      <path id="Path_12160" data-name="Path 12160" d="M169.217,108.3a55.3,55.3,0,0,0,13.448,14.426c21.85,15.848,33.92-17.493,33.92-17.493l.133.222,5.379,9.336,1.734,6.668,38.921-.178,1.712-9.8L270.4,96.785l-1.511,14.826c-.978,9.758,5.023,34.986,7.935,42.5,0,0,10.647,8.513,14.492.978,0,0-.556-13.337-1.445-33.631-.734-16.471,0-38.521-12.692-54.3,0,0-6.157-11.292-16.515-12.136l-8.38-1.289-1.2,2.645a14.693,14.693,0,0,1-25.918,1.778h0c-1.556.645-11.269,1.734-16.315,8.891a102.513,102.513,0,0,0-14.693,30.074c-2.023-11.114-7.024-36.831-17.782-41.3-6.09-2.534-8.558-.556-13.781,3.023S165.394,102.409,169.217,108.3Z" transform="translate(-160.879 -8.069)" fill="#f8f1eb"/>
      <path id="Path_12161" data-name="Path 12161" d="M195.249,161.37,193.4,177.152l.911,1.4a3.645,3.645,0,0,1-3.779,3.645h-1.912a3.312,3.312,0,0,1-3.112-3.623c0-1.245-.533-15.315-.533-15.315Z" transform="translate(-131.409 123.55)" fill="#fbd2bd"/>
      <path id="Path_12162" data-name="Path 12162" d="M222.935,189.261c-2.8-1.245-6.668-10.269-6.668-10.269l-2.956-16.2,8.491-4.668,2.49,16.737c1,3.29,6.113,6.668,9.247,8l5.646,2.534C240.272,185.882,221.934,188.616,222.935,189.261Z" transform="translate(-96.768 119.576)" fill="#fbd2bd"/>
      <path id="Path_12163" data-name="Path 12163" d="M216.228,180.38l-.711-8.246-.867-4.623c2.023.556,4.29,6.046,8.024,6.668,1.956.378,5-4.09,7.113-3.668a136.34,136.34,0,0,1,13.826,3.334h0a3.156,3.156,0,0,1-1.756,5.757Z" transform="translate(-95.129 131.057)" fill="#3f77ee"/>
      <path id="Path_12164" data-name="Path 12164" d="M198.36,177.345h0a3.067,3.067,0,0,0-.2-2.223l-1.667-3.356c-.467-.956-1.867-3.467-2.934-3.556-2.534-.222-6.513-.467-7,.333a15.56,15.56,0,0,0-2.667,8.18,3.023,3.023,0,0,0,3.2,2.667c2.223-.133,6.446.378,8.669.111a3.089,3.089,0,0,0,2.6-2.156Z" transform="translate(-132.741 131.647)" fill="#3f77ee"/>
      <path id="Path_12165" data-name="Path 12165" d="M211.755,130.71,196.907,259.631H183.57V121.819a63.97,63.97,0,0,1,4.223-22.783L196.04,84.21Z" transform="translate(-133.132 29.2)" fill="#222837"/>
      <path id="Path_12166" data-name="Path 12166" d="M241.546,121.816a64.192,64.192,0,0,0-6.668-23.65L227.81,83.407H203.359A48.457,48.457,0,0,0,189.2,85.185l15.559,46.523,39.032,127.231,4.935-2.712,3.579-1.978Z" transform="translate(-126.248 28.203)" fill="#222837"/>
      <path id="Path_12167" data-name="Path 12167" d="M199.059,69.784c6.891,5.424,14.515-1.756,15.226-2.578a29.185,29.185,0,0,0,8-20c0-.311,0-.6,0-.911a11.893,11.893,0,0,0-.578-2.778c-.289-.822-1.734-2.334-1.734-3.112a15.56,15.56,0,0,0-10.936-6.49c-7.891-.845-19.672,4.446-19.16,13.714C189.812,47.556,190.168,62.715,199.059,69.784Z" transform="translate(-125.438 -32.414)" fill="#704a39"/>
      <path id="Path_12168" data-name="Path 12168" d="M202.057,35.129a2,2,0,0,1,2.334,1.578h0a2,2,0,0,1-1.578,2.223l1.067,4.846c-4.446,2.356-7.735-2.445-6.668-5.779h0a4.868,4.868,0,0,1,4.846-2.867Z" transform="translate(-116.699 -30.857)" fill="#3f77ee"/>
      <path id="Path_12169" data-name="Path 12169" d="M229.588,70.757a7.936,7.936,0,0,1,0,3.468A14.07,14.07,0,0,1,226.1,80.4a19.027,19.027,0,0,1-9.691,6.313,10.781,10.781,0,0,1-10.669-3.223,12,12,0,0,1-2.223-6.157A18.538,18.538,0,0,1,208.383,62.8a7.291,7.291,0,0,1-.467-11.425,7.535,7.535,0,0,1-3.934-3.712,3,3,0,0,0-1.045-1.511,17.138,17.138,0,0,0-3.134-.822c-1.045,0-3.045-4.068-1.245-6.113,4.446-5.09,11.114-5.135,14.048-5.668a17.538,17.538,0,0,1,10.247.978,7.735,7.735,0,0,1,5.09,6.935,7.024,7.024,0,0,1-3.223,5.09,15.248,15.248,0,0,1,8.758,4.846,9.625,9.625,0,0,1,1.8,9.536,14.737,14.737,0,0,1-7.424,6.668A5.957,5.957,0,0,1,229.588,70.757Z" transform="translate(-115.69 -33.188)" fill="#704a39"/>
      <path id="Path_12170" data-name="Path 12170" d="M208.815,53.823a4.068,4.068,0,0,0,3.379,1.6,9.914,9.914,0,0,0,4.446-1.445c.333-.178,0-.645-.267-.489a9.336,9.336,0,0,1-3.957,1.356,3.49,3.49,0,0,1-3.09-1.289c-.222-.289-.689,0-.489.267Z" transform="translate(-102.296 -8.429)" fill="#1d1d1b"/>
      <path id="Path_12171" data-name="Path 12171" d="M200.73,36.021a17.782,17.782,0,0,1,9.647-1.956.278.278,0,0,0,0-.556,18.583,18.583,0,0,0-9.936,2.023C200.13,35.71,200.441,36.176,200.73,36.021Z" transform="translate(-112.661 -32.86)" fill="#1d1d1b"/>
      <path id="Path_12172" data-name="Path 12172" d="M200.366,38.444a7.6,7.6,0,0,0,5.535,8.691V46.6a4.446,4.446,0,0,0-4.712,4.446,7.068,7.068,0,0,0,4.779,6.246l.156-.533a5.624,5.624,0,0,0-4.89,5.312,7.046,7.046,0,0,0,4.757,6.668c.333.133.489-.4.156-.533a6.491,6.491,0,0,1-4.445-5.646,5.068,5.068,0,0,1,4.445-5.135c.222,0,.422-.4.133-.511a7.068,7.068,0,0,1-4.446-4.69,4.068,4.068,0,0,1,4.068-5c.311,0,.356-.467,0-.556a7.024,7.024,0,0,1-5.157-8c0-.356-.467-.511-.534-.156Z" transform="translate(-112.786 -26.926)" fill="#1d1d1b"/>
      <path id="Path_12173" data-name="Path 12173" d="M188.375,87.307a26.674,26.674,0,0,1,6.09-.622c3.267-.133,6.535-.156,9.8-.178h20.605a32.318,32.318,0,0,0,6.668-.533.289.289,0,0,0-.156-.533,28.142,28.142,0,0,1-5.957.489h-9.713c-6.891,0-13.781,0-20.672.156a29.65,29.65,0,0,0-6.868.689c-.333,0-.2.645.156.533Z" transform="translate(-127.735 30.703)" fill="#fff"/>
      <path id="Path_12174" data-name="Path 12174" d="M196.2,94.262a19.761,19.761,0,0,0,20.45,21.672.289.289,0,0,0,0-.556,19.16,19.16,0,0,1-20-21.116c0-.356-.533-.333-.556,0Z" transform="translate(-117.823 41.175)" fill="#fff"/>
      <path id="Path_12175" data-name="Path 12175" d="M210,100.836c-1.6,4.223-6.313,5.535-10.38,6s-8.58,1.045-12.292-.956c-.311-.156-.6.311-.267.489,4.023,2.223,9.113,1.489,13.47.911s8.424-2.223,10-6.313c.133-.333-.4-.467-.533-.133Z" transform="translate(-129.045 49.295)" fill="#fff"/>
      <path id="Path_12176" data-name="Path 12176" d="M168.382,53.624a6.246,6.246,0,0,1,2.6-1.156c.556,0,.289-12.359,3.512-11.314.289,0,.178,10.758.467,10.758V61.937a134.471,134.471,0,0,0-.556,13.959c0,2.223-2.378,2.223-4.623,2.223h0a3.934,3.934,0,0,1-3.8-4.779,30.209,30.209,0,0,0,1.089-6.268S161,54.38,168.382,53.624Z" transform="translate(-156.177 -23.524)" fill="#fbd2bd"/>
    </g>
    <g id="APPLOVER_ilustration_EXPORT_APPLOVER_ilu-7" transform="translate(348.747 63.284)">
      <path id="Path_11731" data-name="Path 11731" d="M97.362,30.37h0a23.948,23.948,0,0,0-7.933,17.152L88.4,67.718l33.51-.75V38.517Z" transform="translate(-40.277 -27.027)" fill="#1d1d1b"/>
      <path id="Path_11732" data-name="Path 11732" d="M79.29,158.63v20.089l4.824,5.939L96.656,183.5l-.15-4.524c-2.38-2.144-8.233-5-9.219-8.04l-.6-10.334Z" transform="translate(4.508 119.697)" fill="#fbd9b2"/>
      <path id="Path_11733" data-name="Path 11733" d="M127.208,185.357c2.7-1.2,6.432-9.905,6.432-9.905l2.851-15.629-8.19-4.5-2.4,16.144c-.965,3.173-5.9,6.432-8.919,7.718l-5.446,2.444C110.485,182.1,128.151,184.649,127.208,185.357Z" transform="translate(-104.362 115.911)" fill="#fbd9b2"/>
      <path id="Path_11734" data-name="Path 11734" d="M140.563,177.124l.686-7.954.836-4.459c-1.951.536-4.138,5.832-7.74,6.432-1.887.364-4.824-3.945-6.861-3.538a119.749,119.749,0,0,0-13.336,3.216h0a3.044,3.044,0,0,0,1.694,5.553Z" transform="translate(-112.83 126.652)" fill="#383d4b"/>
      <path id="Path_11735" data-name="Path 11735" d="M82.508,175.012,78.5,170.081V166.2c1.351,0,5.531,4.931,6.432,4.288,5.939-3.752,7.761-1.5,10.72-.172,1.608,1.072,2.144,2.144,1.694,3.387a4.288,4.288,0,0,1-4.545,3.13l-8.233-.707a3.13,3.13,0,0,1-2.058-1.115Z" transform="translate(5.364 128.357)" fill="#383d4b"/>
      <path id="Path_11736" data-name="Path 11736" d="M92.983,47.706s2.508,6.046,3.859,6.861a14.515,14.515,0,0,0,10.72,2.144,59.041,59.041,0,0,0,.15-7.7C106.9,47,91.761,38.294,91.782,41.081,91.739,42.732,93,43.354,92.983,47.706Z" transform="translate(-33.39 -15.398)" fill="#d7aa79"/>
      <path id="Path_11737" data-name="Path 11737" d="M105.327,92.891c11.556-1.436,12.435-29.651,12.435-29.651L111.33,60.2a15.243,15.243,0,0,1-2.551-5.081c0-.75,0-1.522,0-2.294-5.746,1.629-13.528-7.911-14.536-8.94,0,5.06.172,14.107-.322,14.815l-5.939,1.629C86.5,62.232,92.077,94.542,105.327,92.891Z" transform="translate(-34.735 -11.572)" fill="#fbd9b2"/>
      <path id="Path_11738" data-name="Path 11738" d="M87.71,42.692s5.553,16.916,15.651,20.946a6.754,6.754,0,0,0,9.09-2.358c3.259-4.288,3.795-6.925,4.545-13.421,0-.879.129-5.274.193-8.4V36.346c-.364-1.887-2.144-2.487-4.031-2.83s-3.13-.536-3.3-1.329C109.214,29.55,87.71,42.692,87.71,42.692Z" transform="translate(-34.077 -25.349)" fill="#fbd9b2"/>
      <path id="Path_11739" data-name="Path 11739" d="M123.061,92.757c.236.879-4.588,18.159-4.588,18.159.836,0,10.377,18.61-1.908,22.3-.257,0-.943-.707-1.822-1.715s-3.838-15.651-4.074-20.625c-.343-6.925,2.144-19.3,1.286-20.6Z" transform="translate(-89.11 41.496)" fill="#fbd9b2"/>
      <path id="Path_11740" data-name="Path 11740" d="M81.75,126.252,96.072,250.6h12.864V117.676A61.7,61.7,0,0,0,104.862,95.7L96.908,81.4Z" transform="translate(-13.045 31.349)" fill="#222837"/>
      <path id="Path_11741" data-name="Path 11741" d="M97.886,117.633a61.917,61.917,0,0,1,6.432-22.79l6.818-14.236h23.584a46.74,46.74,0,0,1,13.657,1.715l-15.008,44.852L95.591,249.894l-4.76-2.594-3.452-1.908Z" transform="translate(-64.556 30.428)" fill="#222837"/>
      <path id="Path_11742" data-name="Path 11742" d="M91.463,39.487a8.576,8.576,0,0,0,1.458,4.8c.172.322.386.665.172,1.008a1.436,1.436,0,0,1-.729.493,3.344,3.344,0,0,1-1.629.343A.536.536,0,0,1,90.2,45.6c0-.257.236-.579.536-.536a2.594,2.594,0,0,0,1.286-.279h.214v.172c-.172-.364-.364-.729-.557-1.093a10.721,10.721,0,0,1-.879-2.144,5.853,5.853,0,0,1-.15-2.444.536.536,0,0,1,1.029.279Z" transform="translate(-15.405 -17.235)" fill="#d7aa79"/>
      <path id="Path_11743" data-name="Path 11743" d="M89.236,45.178q.707.129,1.415.193a20.11,20.11,0,0,0,10.72-1.2A29.179,29.179,0,0,0,111.9,36.152c.214.236,2.144,1.994,2.766,1.994h0a10.356,10.356,0,0,0,0-2.015v-.343a9.433,9.433,0,0,0-1.222-3.216h-.107a2.144,2.144,0,0,0-2.7.472.707.707,0,0,0-.214.3c-1.608,3.387-5.038,4.888-8.426,6.025a22.962,22.962,0,0,1-11.535,1.715C87.671,40.526,86.513,44.664,89.236,45.178Z" transform="translate(-31.551 -24.834)" fill="#d7aa79"/>
      <path id="Path_11744" data-name="Path 11744" d="M77.774,108.579l4.288-.772-2.144,8.361a5.684,5.684,0,0,1-.279,1.158,14.45,14.45,0,0,0,4.5,4.76l.364-.729,3.538-7.054c1.308-2.53,9.3-17.966,11.706-19.51L91.539,80c-.665.772-2.744,19.489-3.43,20.153l-11.234,6.432a1.094,1.094,0,1,0,.9,1.994Z" transform="translate(7.975 29.748)" fill="#fbd9b2"/>
      <path id="Path_11745" data-name="Path 11745" d="M80.911,95.483a11.105,11.105,0,0,0,1.458,4.61,14.451,14.451,0,0,0,4.5,4.76,22.448,22.448,0,0,0,5.1,2.594c.493.193.708-.579.214-.772a20.881,20.881,0,0,1-4.953-2.551,13.035,13.035,0,0,1-4.588-5.188,10.141,10.141,0,0,1-.922-3.452C81.683,94.926,80.868,94.926,80.911,95.483Z" transform="translate(5.224 46.981)" fill="#fff"/>
      <path id="Path_11746" data-name="Path 11746" d="M87.191,63.955C74.949,79.2,75.635,100.4,74.928,116.332c-.858,19.6-1.394,32.438-1.394,32.438,3.709,7.289,14-.943,14-.943,2.809-7.225,8.576-31.581,7.633-40.993l-1.458-14.3,5.724,14.193,1.651,9.433,37.562.172,1.672-6.432,5.188-9,.15-.279,5.017,6.561c-.879,1.115-1.072,15.973-.279,18.417a7.7,7.7,0,0,0,10.527,4.824,7.291,7.291,0,0,0,1.544-1.051l5.874-11.878c.343-17.859-6.432-41.336-15.265-53.728-4.845-6.839-14.215-7.89-15.737-8.576L123.231,77.955,111.2,50.92l-8.211,1.265C93.13,53,87.191,63.955,87.191,63.955Z" transform="translate(-54.848 -3.519)" fill="#79bdeb"/>
      <path id="Path_11747" data-name="Path 11747" d="M96.523,68.747A41.143,41.143,0,0,1,82.459,92.331c-.257.214-.643-.172-.364-.386A40.735,40.735,0,0,0,96.009,68.554c0-.343.579-.193.515.129Z" transform="translate(-1.169 16.431)" fill="#1d1d1b"/>
      <path id="Path_11748" data-name="Path 11748" d="M97.675,57.853a49.823,49.823,0,0,1,2.487,6.2c.107.322-.407.472-.515.129a44.576,44.576,0,0,0-2.444-5.96c-.15-.3.3-.579.472-.279Z" transform="translate(-37.353 4.363)" fill="#1d1d1b"/>
      <path id="Path_11749" data-name="Path 11749" d="M98.842,54.022a46.1,46.1,0,0,1,5.253,8.168c.15.322-.322.579-.472.279a43.951,43.951,0,0,0-5.231-8.018c-.214-.257.15-.643.364-.386Z" transform="translate(-43.773 -0.018)" fill="#1d1d1b"/>
      <path id="Path_11750" data-name="Path 11750" d="M92.9,85.169c.622,3.345,1.115,6.732,1.458,10.119a28.92,28.92,0,0,1,.322,4.91,2.144,2.144,0,0,1-1.715,2.273c-.322,0-.472-.45-.129-.515,1.737-.322,1.308-2.594,1.222-3.859s-.236-2.766-.386-4.138c-.322-2.894-.75-5.789-1.286-8.576,0-.322.45-.472.515-.129Z" transform="translate(-21.602 35.535)" fill="#fff"/>
      <path id="Path_11751" data-name="Path 11751" d="M95.831,93.594c-.836,5.531-1.565,11.063-2.144,16.637,0,.322-.557.343-.536,0q.965-8.426,2.144-16.787c0-.343.579-.193.515.15Z" transform="translate(-24.382 44.904)" fill="#fff"/>
      <path id="Path_11752" data-name="Path 11752" d="M93.964,84.94a41.291,41.291,0,0,1,2.015,8.319c.515,3.43,1.136,6.839,1.737,10.27,0,.322-.472.472-.536.129-.6-3.409-1.2-6.839-1.715-10.27a40.735,40.735,0,0,0-2.015-8.211c-.129-.322.407-.472.515-.15Z" transform="translate(-26.868 35.292)" fill="#fff"/>
      <path id="Path_11753" data-name="Path 11753" d="M115.468,88.238a24.57,24.57,0,0,1-3.688,12.414c-2.015,3.473-5.531,4.845-9.176,6-.322,0-.472-.407-.129-.515,3.623-1.158,7.054-2.508,9-6a24.205,24.205,0,0,0,3.43-11.9.279.279,0,0,1,.536,0Z" transform="translate(-63.593 38.94)" fill="#fff"/>
      <path id="Path_11754" data-name="Path 11754" d="M128.2,84.456a56.514,56.514,0,0,1-12.285,3.259,35.183,35.183,0,0,1-10.913-.429c-6.239-1.158-12.478-2.53-18.631-4.116a.279.279,0,0,1,.15-.536c5.939,1.544,11.963,2.873,17.988,4.009a36.706,36.706,0,0,0,10.934.6,55.507,55.507,0,0,0,12.607-3.194c.322-.129.472.407.15.515Z" transform="translate(-42.005 32.753)" fill="#fff"/>
      <path id="Path_11755" data-name="Path 11755" d="M102.739,57.919a.257.257,0,0,0,.257-.257V40.789a.268.268,0,1,0-.536,0V57.662a.257.257,0,0,0,.279.257Z" transform="translate(-51.507 -15.427)" fill="#fff"/>
      <path id="Path_11756" data-name="Path 11756" d="M87.681,41.759c-.172,7.632,6.025,12.864,5.724,9.476,0-.407,1.415-2.744,1.351-3.195a73.58,73.58,0,0,0,9.734-.815c4.288-.75,10.355-5.531,11.32-8.79,1.758,1.994,2.894,3.473,3.13,3.688h0a10.357,10.357,0,0,0,0-2.015v-.343a9.433,9.433,0,0,0-1.222-3.216c-3.195-5.424-11.256-8.276-17.152-7.654a15.008,15.008,0,0,0-10.548,6.26c0,.772-1.394,2.144-1.672,3.023a11.234,11.234,0,0,0-.557,2.68A3.432,3.432,0,0,0,87.681,41.759Z" transform="translate(-35.806 -28.811)" fill="#1d1d1b"/>
      <path id="Path_11757" data-name="Path 11757" d="M97.827,41.335c0,2.144,1.372,5.939,3.023,5.939s2.894-3.816,2.894-5.939a3.066,3.066,0,1,0-5.917,0Z" transform="translate(-42.201 -18.91)" fill="#fbd9b2"/>
      <path id="Path_11758" data-name="Path 11758" d="M99.714,34.429a6.089,6.089,0,0,1-5.253,2.594c-.343,0-.343-.557,0-.536a5.617,5.617,0,0,0,4.8-2.315C99.457,33.893,99.929,34.172,99.714,34.429Z" transform="translate(-30.581 -22.811)" fill="#fff"/>
      <path id="Path_11759" data-name="Path 11759" d="M88.852,40.064a1.265,1.265,0,0,0,0,.472,2.53,2.53,0,0,1,1.093-.836,7.826,7.826,0,0,1,1.844-.386.815.815,0,0,0-.279-.643s-.322.407-.429.364a1.694,1.694,0,0,0-2.23,1.029Z" transform="translate(-11.078 -17.532)" fill="#1d1e1c"/>
      <path id="Path_11760" data-name="Path 11760" d="M95.95,40.174a3.108,3.108,0,0,1,.279.386,2.68,2.68,0,0,0-1.372-.129A8.1,8.1,0,0,0,93.1,41.1a.793.793,0,0,1,0-.686s.493.172.557,0a1.737,1.737,0,0,1,2.294-.236Z" transform="translate(-24.501 -16.185)" fill="#1d1e1c"/>
    </g>
    <g id="Group_26195" data-name="Group 26195" transform="translate(20990.633 22461.414)">
      <rect id="Rectangle_4387" data-name="Rectangle 4387" width="91.405" height="174.133" transform="translate(-20654.055 -22076.945) rotate(180)" fill="#e5e5e5"/>
      <path id="Path_55" data-name="Path 55" d="M169,109.616l-27.591-4.374L140.92,86.77l27.638,14.773Z" transform="translate(-20797.84 -22384.844)" fill="#3f77ee"/>
      <path id="Path_107" data-name="Path 107" d="M161.847,102.674q-16.518-.7-33.012-.3a.3.3,0,0,0,0,.582q16.494-.4,33.012.3a.3.3,0,0,0,0-.582Z" transform="translate(-20814.158 -22364.338)" fill="#1d1d1b"/>
      <path id="Path_108" data-name="Path 108" d="M134.558,172.158c-2.861-1.466-6.4-11.1-6.4-11.1l.861-13.191,9.143-4.42-1.4,13.726c.861,3.49.791,7.375,4,9C140.769,166.179,133.557,171.437,134.558,172.158Z" transform="translate(-20814.764 -22309.66)" fill="#fbd2bd"/>
      <path id="Path_109" data-name="Path 109" d="M127.59,164.789l1.326-13.424c2.094.7,2.117,3.792,5.979,4.653,2,.512,4.653-5.351,6.979-5.258,5,.233-1.233,3.7.372,4.49a115.253,115.253,0,0,1,12.516,8.259c2.559,1.908-4.257,8.375-14.936,5.676Z" transform="translate(-20815.52 -22299.965)" fill="#fc636b"/>
      <path id="Path_110" data-name="Path 110" d="M145.65,162.373A23.705,23.705,0,0,1,137,159.883h0l-9.306-3.978.233-.535,9.306,4a19.774,19.774,0,0,0,9.306,2.326l6.584-.7v.558l-6.584.721a6.971,6.971,0,0,1-.884.093Z" transform="translate(-20815.387 -22293.85)" fill="#fff"/>
      <path id="Path_111" data-name="Path 111" d="M151.055,149.356c-2.071-2.326-6.1-13.261-6.1-13.261l3.955-16.285,8.422,2.582S150.427,148.286,151.055,149.356Z" transform="translate(-20792.48 -22341.018)" fill="#fbd2bd"/>
      <path id="Path_112" data-name="Path 112" d="M140.9,131.184l11.074-7.654c.838,2.024-1.512,4.048.279,7.584.931,1.861,7.1,0,8.468,1.861,3.071,3.978-2.606.977-1.629,2.466a54.159,54.159,0,0,1,5.956,16.285v.116a3.327,3.327,0,0,1-5.932,2.21Z" transform="translate(-20797.865 -22336.084)" fill="#fc636b"/>
      <rect id="Rectangle_4399" data-name="Rectangle 4399" width="0.582" height="32.314" transform="matrix(0.784, -0.621, 0.621, 0.784, -20653.506, -22206.494)" fill="#fff"/>
      <path id="Path_113" data-name="Path 113" d="M128.546,103.242l10.678,25.335,41.62-5.514-7.189,36.571,9.562,10.771,23.939-50.553a16.285,16.285,0,0,0,.233-11.167v-.163A16.541,16.541,0,0,0,193.965,98.1l-36.8-3.21-32.361.651Z" transform="translate(-20819.221 -22374.074)" fill="#222837"/>
      <path id="Path_114" data-name="Path 114" d="M150.9,113.61,170.228,139.2a17.076,17.076,0,0,1,1.675,13.307l-15.378,81.053H144.172l1.512-78.8-15.1-13.633c-8.282-7.514-15.866-16.285-15.192-27.5a104.155,104.155,0,0,1,6.119-25.823L159.6,98.232Z" transform="translate(-20831.752 -22383.463)" fill="#383d4b"/>
      <path id="Path_115" data-name="Path 115" d="M142.758,107.672C155.3,106.113,156.252,75.5,156.252,75.5l-4.839-5.421a13.1,13.1,0,0,1-4.257-2.326,1.884,1.884,0,0,1-.535-1.07V64.191c-6.212,1.768-14.354-4.164-15.447-5.281v1.745a11.19,11.19,0,0,1-2.326,7.165,10.841,10.841,0,0,1-4.653,3.373h0C122.425,73.264,128.334,109.463,142.758,107.672Z" transform="translate(-20820.428 -22421.797)" fill="#fbd2bd"/>
      <path id="Path_116" data-name="Path 116" d="M148.32,131.526c12.539-1.559,7.91-61.069,7.91-61.069l-4.839-5.421a13.1,13.1,0,0,1-4.257-2.326l-2.117,4.653a7.305,7.305,0,0,1-12.888.884l-3.3-5.467a10.841,10.841,0,0,1-4.653,3.373h0c-1.07,1.28.558,35.385,7.305,54.206C135.478,131.642,142.923,132.2,148.32,131.526Z" transform="translate(-20820.453 -22416.758)" fill="#f3c4d4"/>
      <path id="Path_117" data-name="Path 117" d="M117.715,91.763,115.9,105.908l53.019-1.093,1.815-17.495-16.169,10.4Z" transform="translate(-20831.025 -22384.113)" fill="#f3c4d4"/>
      <path id="Path_118" data-name="Path 118" d="M127.053,67.144a19.5,19.5,0,0,0,3.862,3.024,15.75,15.75,0,0,0,11.632,2.326,64.06,64.06,0,0,0,.093-8.422c-.884-2.187-15.7-11.33-15.68-8.282C127.053,57.652,127.053,62.421,127.053,67.144Z" transform="translate(-20816.355 -22426.752)" fill="#e2a191"/>
      <path id="Path_119" data-name="Path 119" d="M123.86,57.906s7.677,16.285,8,16.913a19.263,19.263,0,0,0,8.608,5.932c4.653,1.559,6.561,1.21,9.562-1.768a15.61,15.61,0,0,0,5.421-14.4c0-1.373.768-10.864.535-12.423-.582-4-7.491-3-7.817-4.862C147.636,44.436,123.86,57.906,123.86,57.906Z" transform="translate(-20820.467 -22437.729)" fill="#fbd2bd"/>
      <circle id="Ellipse_7" data-name="Ellipse 7" cx="0.744" cy="0.744" r="0.744" transform="translate(-20669.342 -22374.1)" fill="#1d1e1c"/>
      <circle id="Ellipse_8" data-name="Ellipse 8" cx="0.744" cy="0.744" r="0.744" transform="translate(-20677.947 -22374.057)" fill="#1d1e1c"/>
      <path id="Path_120" data-name="Path 120" d="M134.353,53.817a13.075,13.075,0,0,0,.465,5.188,14.238,14.238,0,0,1,.419,2.326c0,.279,0,.628-.233.791s-.7,0-.977,0c-.744-.14-1.047.977-.3,1.117a2.117,2.117,0,0,0,2.326-.558,3.257,3.257,0,0,0,.233-2.513A18.612,18.612,0,0,1,135.493,54c.116-.721-1-1.047-1.117-.3Z" transform="translate(-20807.951 -22429.268)" fill="#e2a191"/>
      <path id="Path_121" data-name="Path 121" d="M126.869,50.187c.4-.349,23.264-1.861,23.683-1.722,1.512.558-.209-.256,0,.489.4,2.513-2.14,6.374-6.491,7.445-2.071.489-9.306-1.163-11.376-1.047-1.07,0-3.536,3.978-4.653,3.746a1,1,0,0,1-1.024-.582,52.554,52.554,0,0,1-.14-8.329Z" transform="translate(-20816.613 -22435.664)" fill="#e2a191"/>
      <path id="Path_122" data-name="Path 122" d="M123.168,56.3a11.354,11.354,0,0,1,.7-2.885c.326-.861,1.884-2.326,1.931-3.187A16.285,16.285,0,0,1,137.429,43.8c8.282-.6,20.426,5.3,19.565,15.029a1.161,1.161,0,0,1,0,.3c0,.279-1.4-3.792-1.489-3.536-1.605,3.978-7.328,8.329-17.262,4.35-2.955-1.163-2.7,3.3-2.792,6.374,0,2.326-2.629,2.885-3.117,1.21a11.632,11.632,0,0,0-1.722-3.21c.535,4.42-.651,6.979.814,11.19.372,1.093,0,3.908-.6,3a30.663,30.663,0,0,1-7.677-21.287A3.14,3.14,0,0,1,123.168,56.3Z" transform="translate(-20821.449 -22441.891)" fill="#704a39"/>
      <ellipse id="Ellipse_9" data-name="Ellipse 9" cx="3.21" cy="4.816" rx="3.21" ry="4.816" transform="translate(-20696.068 -22377) rotate(-18.95)" fill="#fbd2bd"/>
      <path id="Path_123" data-name="Path 123" d="M137.428,63.71c-1.3,12.539-1.861,51.972-3.048,66.489l10.562-.535,1.28-11.027,5.328,18.123,15.541,2.885c-4.955-13.191,1.047-43.667-12.516-63.837C151.5,71.364,141.289,64.641,137.428,63.71Z" transform="translate(-20806.512 -22415.43)" fill="#f3c4d4"/>
      <path id="Path_124" data-name="Path 124" d="M126.2,47.48a9.911,9.911,0,0,0-1.745,9.608c.14.349.7.186.582-.163a9.306,9.306,0,0,1,1.582-9.05c.233-.279-.163-.7-.419-.4Z" transform="translate(-20820.412 -22437.098)" fill="#1d1d1b"/>
      <path id="Path_127" data-name="Path 127" d="M141.963,48.767a10.027,10.027,0,0,1-3,4.257,9,9,0,0,1-5.723,1.815c-.372,0-.372.6,0,.582a14.889,14.889,0,0,0,3.373-.442,7.747,7.747,0,0,0,2.652-1.442,10.586,10.586,0,0,0,3.257-4.653c.14-.349-.419-.512-.558-.163Z" transform="translate(-20808.396 -22435.57)" fill="#1d1d1b"/>
      <path id="Path_128" data-name="Path 128" d="M120.186,102.023a65.746,65.746,0,0,0,13.959,16.448c2.768,2.466,5.63,4.839,8.445,7.258,1.3,1.117,2.606,2.326,3.885,3.42a24.932,24.932,0,0,1,1.977,1.861,4.816,4.816,0,0,1,1.024,4.513c-2.326,16.076-3.466,32.244-4.653,48.413-.744,9.306-1.512,18.611-2.582,27.8a.291.291,0,0,0,.582,0c1.954-16.867,2.955-33.826,4.443-50.739.744-8.305,1.605-16.587,2.792-24.823a6.817,6.817,0,0,0-.279-4.653,17.217,17.217,0,0,0-3.49-3.513c-2.838-2.513-5.746-4.932-8.608-7.4a73.1,73.1,0,0,1-17.006-18.984c-.186-.326-.7,0-.512.3Z" transform="translate(-20825.424 -22365.316)" fill="#fff"/>
      <path id="Path_129" data-name="Path 129" d="M124.476,101.355a17.053,17.053,0,0,1-2.978,9.957c-.209.326.3.6.512.3a17.658,17.658,0,0,0,3.048-10.26.3.3,0,0,0-.582,0Z" transform="translate(-20823.666 -22365.787)" fill="#fff"/>
      <g id="Group_25685" data-name="Group 25685" transform="translate(-20715.053 -22292.352)" opacity="0.3">
        <path id="Path_130" data-name="Path 130" d="M117.808,89.23,115.9,103.375l53.019-1.093,1.815-1.489-16.052-5.607Z" transform="translate(-115.9 -89.23)" fill="#1d1d1b"/>
      </g>
      <g id="Group_25686" data-name="Group 25686" transform="translate(-20660.291 -22312.219)" opacity="0.3">
        <path id="Path_131" data-name="Path 131" d="M139.47,96.114l1.093-15.424,1.768,25.149Z" transform="translate(-139.47 -80.69)" fill="#1d1d1b"/>
      </g>
      <path id="Path_132" data-name="Path 132" d="M137.361,64.18c2,12.47,7.3,54.229,7.3,54.229l27.917,7.956-1.093,9.166-45.551-5.095a13.959,13.959,0,0,1-11.632-13.214c-.7-16.285-1.28-32.919,6.467-43.83C123.891,68.926,133.545,65.343,137.361,64.18Z" transform="translate(-20833.643 -22414.807)" fill="#f3c4d4"/>
      <path id="Path_133" data-name="Path 133" d="M162.949,98.076a40.756,40.756,0,0,0-5.141-1.791c-2.978-.931-5.956-1.791-8.957-2.652-6.723-1.954-13.493-3.815-20.217-5.746-2.326-.675-4.653-1.3-6.979-2.117-.349-.116-.489.442-.14.558,4.932,1.745,10.073,3.024,15.122,4.443,6.561,1.861,13.144,3.676,19.682,5.676a46.787,46.787,0,0,1,6.3,2.14c.326.163.628-.349.3-.512Z" transform="translate(-20823.846 -22386.191)" fill="#1d1d1b"/>
      <path id="Path_134" data-name="Path 134" d="M125.463,75.77A90.124,90.124,0,0,0,122.09,95.2a.291.291,0,0,0,.582,0,90.057,90.057,0,0,1,3.35-19.263C126.022,75.561,125.556,75.4,125.463,75.77Z" transform="translate(-20822.816 -22399.713)" fill="#1d1d1b"/>
      <path id="Path_141" data-name="Path 141" d="M147.894,103.293l47.389-2.466,1.373-1.954L150.826,96.43,134.75,94.29l.163.838a4.188,4.188,0,0,0,1.652,2.7Z" transform="translate(-20806.021 -22374.869)" fill="#e5e5e5"/>
      <path id="Path_142" data-name="Path 142" d="M149.2,102.84l32.058-2.35,9.562-.7,5.839-.442L183.233,93.93l-48.483.861,2.629,1.954Z" transform="translate(-20806.021 -22375.348)" fill="#f6f8fa"/>
      <path id="Path_143" data-name="Path 143" d="M139.627,91.744h1.628c8-1.535,13.959.209,18.5,4.327a10.538,10.538,0,0,1,2.722,3.466c.209.489-2.094,8.631-12.19,2.815-1.07-.628-11.632-3.862-11.632-3.862Z" transform="translate(-20800.85 -22378.977)" fill="#fbd2bd"/>
      <path id="Path_144" data-name="Path 144" d="M142.531,117.121l44.458-2.326a2.094,2.094,0,0,0,2.094-2.094l6.979-26.8a2.071,2.071,0,0,0-2.071-2.071l-44.9,1.977A2.094,2.094,0,0,0,147,87.878L140.46,115a2.07,2.07,0,0,0,2.07,2.117Z" transform="translate(-20798.447 -22388.742)" fill="#e5e5e5"/>
      <circle id="Ellipse_10" data-name="Ellipse 10" cx="4.979" cy="4.979" r="4.979" transform="translate(-20632.746 -22292.93)" fill="#fff"/>
      <path id="Path_145" data-name="Path 145" d="M152.28,96.031a.279.279,0,0,1-.279-.279,6.979,6.979,0,0,1,1.7-5.095,6.84,6.84,0,0,1,4.792-2.326.292.292,0,0,1,.047.582,6.281,6.281,0,0,0-4.4,2.187,6.4,6.4,0,0,0-1.559,4.653.326.326,0,0,1-.279.326Z" transform="translate(-20783.164 -22382.775)" fill="#1d1d1b"/>
    </g>
  </g>
</svg>
